<svg xmlns="http://www.w3.org/2000/svg" xmlns:xlink="http://www.w3.org/1999/xlink" preserveAspectRatio="xMidYMid" width="22" height="21" viewBox="0 0 22 21">
  <defs>
    <style>
      .cls-1 {
        fill: #d2d2d2;
        fill-rule: evenodd;
      }
    </style>
  </defs>
  <path d="M22.000,8.138 C22.000,7.812 21.754,7.609 21.260,7.529 L14.623,6.563 L11.648,0.543 C11.481,0.182 11.264,0.001 11.000,0.001 C10.736,0.001 10.520,0.182 10.352,0.543 L7.377,6.563 L0.740,7.529 C0.246,7.609 -0.001,7.812 -0.001,8.138 C-0.001,8.323 0.110,8.535 0.330,8.773 L5.143,13.457 L4.006,20.072 C3.988,20.196 3.979,20.284 3.979,20.337 C3.979,20.522 4.026,20.679 4.118,20.807 C4.211,20.935 4.349,20.998 4.534,20.998 C4.693,20.998 4.869,20.946 5.063,20.840 L11.000,17.717 L16.937,20.840 C17.122,20.946 17.298,20.998 17.465,20.998 C17.642,20.998 17.776,20.935 17.869,20.807 C17.961,20.679 18.008,20.522 18.008,20.337 C18.008,20.222 18.003,20.134 17.994,20.072 L16.857,13.457 L21.657,8.773 C21.886,8.544 22.000,8.332 22.000,8.138 Z" class="cls-1"/>
</svg>
